<?xml version="1.0" encoding="UTF-8" standalone="no"?>
<!DOCTYPE svg PUBLIC "-//W3C//DTD SVG 1.1//EN" "http://www.w3.org/Graphics/SVG/1.1/DTD/svg11.dtd">
<svg width="100%" height="100%" viewBox="0 0 250 66" version="1.1" xmlns="http://www.w3.org/2000/svg" xmlns:xlink="http://www.w3.org/1999/xlink" xml:space="preserve" xmlns:serif="http://www.serif.com/" style="fill-rule:evenodd;clip-rule:evenodd;stroke-linejoin:round;stroke-miterlimit:2;">
    <g transform="matrix(0.502675,0,0,0.502675,124.603,32.9725)">
        <g transform="matrix(1,0,0,1,-243,-64.5)">
            <g id="ArtBoard1" transform="matrix(1,0,0,1,-6.76691,-57.0769)">
                <rect x="6.767" y="57.077" width="485.93" height="128.856" style="fill:none;"/>
                <g transform="matrix(1,0,0,1,-176.563,-16.2202)">
                    <path d="M185.468,146.215L185.468,75.215L233.668,75.215L233.668,89.615L201.868,89.615L201.868,104.915L228.068,104.915L228.068,118.215L201.868,118.215L201.868,146.215L185.468,146.215Z" style="fill:url(#_Linear1);fill-rule:nonzero;"/>
                    <path d="M298.068,89.615L276.468,89.615L276.468,146.215L260.068,146.215L260.068,89.615L238.368,89.615L238.368,75.215L298.068,75.215L298.068,89.615Z" style="fill:url(#_Linear2);fill-rule:nonzero;"/>
                    <path d="M381.968,89.615L360.368,89.615L360.368,146.215L343.968,146.215L343.968,89.615L322.268,89.615L322.268,75.215L381.968,75.215L381.968,89.615Z" style="fill:url(#_Linear3);fill-rule:nonzero;"/>
                    <path d="M453.168,75.215L453.168,146.215L436.768,146.215L436.768,117.115L408.468,117.115L408.468,146.215L392.068,146.215L392.068,75.215L408.468,75.215L408.468,102.715L436.768,102.715L436.768,75.215L453.168,75.215Z" style="fill:url(#_Linear4);fill-rule:nonzero;"/>
                    <path d="M518.668,131.815L518.668,146.215L468.768,146.215L468.768,75.215L517.768,75.215L517.768,89.615L485.168,89.615L485.168,103.415L513.168,103.415L513.168,116.715L485.168,116.715L485.168,131.815L518.668,131.815Z" style="fill:url(#_Linear5);fill-rule:nonzero;"/>
                    <path d="M586.868,146.215L586.868,103.715L571.468,134.615L562.668,134.615L547.268,103.715L547.268,146.215L530.868,146.215L530.868,75.215L548.668,75.215L567.068,112.315L585.568,75.215L603.268,75.215L603.268,146.215L586.868,146.215Z" style="fill:url(#_Linear6);fill-rule:nonzero;"/>
                    <path d="M668.768,131.815L668.768,146.215L618.868,146.215L618.868,75.215L667.868,75.215L667.868,89.615L635.268,89.615L635.268,103.415L663.268,103.415L663.268,116.715L635.268,116.715L635.268,131.815L668.768,131.815Z" style="fill:url(#_Linear7);fill-rule:nonzero;"/>
                    <path d="M304.095,195.283C304.664,195.283 305.006,195.008 305.12,194.457L307.655,182.58C307.769,182.01 307.541,181.725 306.971,181.725L304.436,181.725L301.56,195.283L304.095,195.283ZM308.054,176.627C308.623,176.627 308.975,176.342 309.108,175.772L311.272,165.604C311.386,165.034 311.158,164.749 310.589,164.749L308.054,164.749L305.519,176.627L308.054,176.627ZM313.38,159.651C314.538,159.651 315.45,160.068 316.114,160.904C316.76,161.739 316.959,162.736 316.713,163.895L314.206,175.772C313.94,177.025 313.333,178.155 312.383,179.162C312.896,180.187 313.019,181.326 312.753,182.58L309.877,196.137C309.611,197.315 308.975,198.312 307.968,199.128C306.962,199.964 305.879,200.381 304.721,200.381L295.379,200.381L304.038,159.651L313.38,159.651ZM303.781,180.871L307.171,180.871C307.645,180.871 308.006,181.032 308.253,181.355C308.519,181.697 308.604,182.105 308.509,182.58L305.974,194.457C305.879,194.913 305.623,195.311 305.205,195.653C304.826,195.976 304.398,196.137 303.924,196.137L300.534,196.137L303.781,180.871ZM307.37,163.895L310.76,163.895C311.234,163.895 311.595,164.066 311.842,164.407C312.127,164.73 312.222,165.129 312.127,165.604L309.962,175.772C309.848,176.247 309.592,176.646 309.193,176.968C308.794,177.31 308.357,177.481 307.883,177.481L304.493,177.481L307.37,163.895ZM304.721,160.505L296.404,199.527L304.892,199.527C305.822,199.527 306.696,199.195 307.512,198.53C308.31,197.865 308.813,197.068 309.022,196.137L311.899,182.58C312.127,181.497 312.032,180.519 311.614,179.646L311.358,179.162L311.813,178.677C312.611,177.804 313.124,176.835 313.352,175.772L315.858,163.895C316.067,162.964 315.905,162.167 315.374,161.502C314.861,160.837 314.14,160.505 313.209,160.505L304.721,160.505Z" style="fill:url(#_Linear8);fill-rule:nonzero;"/>
                    <path d="M334.942,159.651L324.317,186.197L321.298,200.381L316.228,200.381L319.248,186.197L319.903,159.651L325.087,159.651L324.773,172.155L329.758,159.651L334.942,159.651ZM323.776,176.741L323.919,172.297L324.204,160.505L320.757,160.505L320.102,186.026L320.074,186.111L317.225,199.527L320.643,199.527L323.491,186.111L323.52,186.026L333.745,160.505L330.299,160.505L325.571,172.297L323.776,176.741Z" style="fill:url(#_Linear9);fill-rule:nonzero;"/>
                    <path d="M351.149,176.627C351.718,176.627 352.07,176.342 352.202,175.772L354.367,165.604C354.481,165.034 354.253,164.749 353.684,164.749L351.149,164.749L348.614,176.627L351.149,176.627ZM356.475,159.651C357.633,159.651 358.545,160.068 359.209,160.904C359.855,161.739 360.054,162.736 359.807,163.895L356.931,177.481C356.684,178.639 356.057,179.636 355.051,180.472C354.025,181.307 352.933,181.725 351.775,181.725L347.531,181.725L343.572,200.381L338.474,200.381L347.132,159.651L356.475,159.651ZM350.465,163.895L353.854,163.895C354.329,163.895 354.69,164.066 354.937,164.407C355.222,164.73 355.317,165.129 355.222,165.604L353.057,175.772C352.943,176.247 352.687,176.646 352.288,176.968C351.889,177.31 351.452,177.481 350.978,177.481L347.588,177.481L350.465,163.895ZM347.816,160.505L339.499,199.527L342.888,199.527L346.876,180.871L351.975,180.871C352.905,180.871 353.769,180.538 354.567,179.874C355.364,179.209 355.867,178.412 356.076,177.481L358.953,163.895C359.162,162.964 359,162.167 358.469,161.502C357.956,160.837 357.234,160.505 356.304,160.505L347.816,160.505Z" style="fill:url(#_Linear10);fill-rule:nonzero;"/>
                    <path d="M376.584,159.651L367.925,200.381L362.827,200.381L366.786,181.725L363.396,181.725L359.437,200.381L354.339,200.381L362.998,159.651L368.096,159.651L364.479,176.627L367.868,176.627L371.485,159.651L376.584,159.651ZM363.453,177.481L367.071,160.505L363.681,160.505L355.364,199.527L358.754,199.527L362.741,180.871L367.84,180.871L363.852,199.527L367.241,199.527L375.559,160.505L372.169,160.505L368.552,177.481L363.453,177.481Z" style="fill:url(#_Linear11);fill-rule:nonzero;"/>
                    <path d="M378.863,159.651L383.961,159.651L375.302,200.381L370.204,200.381L378.863,159.651ZM371.229,199.527L374.619,199.527L382.936,160.505L379.546,160.505L371.229,199.527Z" style="fill:url(#_Linear12);fill-rule:nonzero;"/>
                    <path d="M391.338,159.651L383.762,195.283L391.395,195.283L390.313,200.381L377.581,200.381L386.24,159.651L391.338,159.651ZM378.606,199.527L389.629,199.527L390.37,196.137L382.736,196.137L390.313,160.505L386.923,160.505L378.606,199.527Z" style="fill:url(#_Linear13);fill-rule:nonzero;"/>
                    <path d="M401.25,159.651L406.349,159.651L397.69,200.381L392.591,200.381L401.25,159.651ZM393.617,199.527L397.006,199.527L405.323,160.505L401.934,160.505L393.617,199.527Z" style="fill:url(#_Linear14);fill-rule:nonzero;"/>
                    <path d="M412.644,176.627C413.213,176.627 413.564,176.342 413.697,175.772L415.862,165.604C415.976,165.034 415.748,164.749 415.179,164.749L412.644,164.749L410.109,176.627L412.644,176.627ZM417.97,159.651C419.128,159.651 420.04,160.068 420.704,160.904C421.35,161.739 421.549,162.736 421.302,163.895L418.426,177.481C418.179,178.639 417.552,179.636 416.546,180.472C415.52,181.307 414.428,181.725 413.27,181.725L409.026,181.725L405.067,200.381L399.969,200.381L408.627,159.651L417.97,159.651ZM411.96,163.895L415.349,163.895C415.824,163.895 416.185,164.066 416.432,164.407C416.717,164.73 416.812,165.129 416.717,165.604L414.552,175.772C414.438,176.247 414.182,176.646 413.783,176.968C413.384,177.31 412.947,177.481 412.473,177.481L409.083,177.481L411.96,163.895ZM409.311,160.505L400.994,199.527L404.383,199.527L408.371,180.871L413.47,180.871C414.4,180.871 415.264,180.538 416.061,179.874C416.859,179.209 417.362,178.412 417.571,177.481L420.448,163.895C420.657,162.964 420.495,162.167 419.964,161.502C419.451,160.837 418.729,160.505 417.799,160.505L409.311,160.505Z" style="fill:url(#_Linear15);fill-rule:nonzero;"/>
                    <path d="M434.462,195.283C435.031,195.283 435.373,195.008 435.487,194.457L438.022,182.58C438.136,182.01 437.908,181.725 437.338,181.725L434.803,181.725L431.927,195.283L434.462,195.283ZM438.421,176.627C438.99,176.627 439.342,176.342 439.475,175.772L441.639,165.604C441.753,165.034 441.525,164.749 440.956,164.749L438.421,164.749L435.886,176.627L438.421,176.627ZM443.747,159.651C444.905,159.651 445.817,160.068 446.481,160.904C447.127,161.739 447.326,162.736 447.08,163.895L444.573,175.772C444.307,177.025 443.7,178.155 442.75,179.162C443.263,180.187 443.386,181.326 443.12,182.58L440.244,196.137C439.978,197.315 439.342,198.312 438.335,199.128C437.329,199.964 436.246,200.381 435.088,200.381L425.746,200.381L434.405,159.651L443.747,159.651ZM434.148,180.871L437.538,180.871C438.012,180.871 438.373,181.032 438.62,181.355C438.886,181.697 438.971,182.105 438.876,182.58L436.341,194.457C436.246,194.913 435.99,195.311 435.572,195.653C435.193,195.976 434.765,196.137 434.291,196.137L430.901,196.137L434.148,180.871ZM437.737,163.895L441.127,163.895C441.601,163.895 441.962,164.066 442.209,164.407C442.494,164.73 442.589,165.129 442.494,165.604L440.329,175.772C440.215,176.247 439.959,176.646 439.56,176.968C439.161,177.31 438.725,177.481 438.25,177.481L434.86,177.481L437.737,163.895ZM435.088,160.505L426.771,199.527L435.259,199.527C436.19,199.527 437.063,199.195 437.88,198.53C438.677,197.865 439.18,197.068 439.389,196.137L442.266,182.58C442.494,181.497 442.399,180.519 441.981,179.646L441.725,179.162L442.18,178.677C442.978,177.804 443.491,176.835 443.719,175.772L446.225,163.895C446.434,162.964 446.273,162.167 445.741,161.502C445.228,160.837 444.507,160.505 443.576,160.505L435.088,160.505Z" style="fill:url(#_Linear16);fill-rule:nonzero;"/>
                    <path d="M452.577,176.627C453.298,176.627 453.963,176.38 454.571,175.886C455.159,175.392 455.53,174.794 455.681,174.092L457.504,165.604C457.618,165.034 457.39,164.749 456.821,164.749L454.286,164.749L451.751,176.627L452.577,176.627ZM459.612,159.651C460.77,159.651 461.682,160.068 462.346,160.904C462.992,161.739 463.191,162.736 462.945,163.895L460.78,174.092C460.381,176.028 459.365,177.718 457.732,179.162C458.739,180.624 459.033,182.323 458.615,184.26L455.197,200.381L450.099,200.381L453.517,184.26C453.669,183.557 453.555,182.959 453.175,182.466C452.757,181.972 452.197,181.725 451.494,181.725L450.668,181.725L446.709,200.381L441.611,200.381L450.27,159.651L459.612,159.651ZM453.602,163.895L456.992,163.895C457.466,163.895 457.827,164.066 458.074,164.407C458.359,164.73 458.454,165.129 458.359,165.604L456.536,174.092C456.346,175.022 455.843,175.82 455.026,176.484C454.229,177.149 453.355,177.481 452.406,177.481L450.725,177.481L453.602,163.895ZM450.953,160.505L442.636,199.527L446.026,199.527L450.013,180.871L451.694,180.871C452.643,180.871 453.374,181.203 453.887,181.867C454.419,182.532 454.58,183.33 454.371,184.26L451.124,199.527L454.514,199.527L457.761,184.26C458.14,182.532 457.884,181.022 456.992,179.731L456.593,179.162L457.22,178.62C458.663,177.329 459.565,175.82 459.925,174.092L462.09,163.895C462.299,162.964 462.138,162.167 461.606,161.502C461.093,160.837 460.372,160.505 459.441,160.505L450.953,160.505Z" style="fill:url(#_Linear17);fill-rule:nonzero;"/>
                    <path d="M478.867,159.651L477.784,164.749L470.151,164.749L467.616,176.627L471.86,176.627L470.777,181.725L466.533,181.725L463.657,195.283L471.29,195.283L470.208,200.381L457.476,200.381L466.135,159.651L478.867,159.651ZM458.501,199.527L469.524,199.527L470.265,196.137L462.631,196.137L465.878,180.871L470.122,180.871L470.834,177.481L466.59,177.481L469.467,163.895L477.101,163.895L477.841,160.505L466.818,160.505L458.501,199.527Z" style="fill:url(#_Linear18);fill-rule:nonzero;"/>
                    <path d="M501.511,159.651L492.852,200.381L487.753,200.381L493.564,173.095L484.392,200.381L480.946,200.381L483.395,173.095L477.585,200.381L472.486,200.381L481.145,159.651L489.719,159.651L488.522,172.781L492.937,159.651L501.511,159.651ZM487.041,179.731L487.668,172.895L488.779,160.505L481.829,160.505L473.512,199.527L476.901,199.527L482.541,173.095L484.221,173.009L481.857,199.527L483.823,199.527L492.738,173.009L494.418,173.095L488.779,199.527L492.168,199.527L500.485,160.505L493.535,160.505L489.348,172.895L487.041,179.731Z" style="fill:url(#_Linear19);fill-rule:nonzero;"/>
                    <path d="M503.846,195.283C504.416,195.283 504.758,195.008 504.872,194.457L507.407,182.58C507.521,182.01 507.293,181.725 506.723,181.725L504.188,181.725L501.311,195.283L503.846,195.283ZM507.805,176.627C508.375,176.627 508.726,176.342 508.859,175.772L511.024,165.604C511.138,165.034 510.91,164.749 510.34,164.749L507.805,164.749L505.27,176.627L507.805,176.627ZM513.132,159.651C514.29,159.651 515.202,160.068 515.866,160.904C516.512,161.739 516.711,162.736 516.464,163.895L513.958,175.772C513.692,177.025 513.084,178.155 512.135,179.162C512.648,180.187 512.771,181.326 512.505,182.58L509.628,196.137C509.363,197.315 508.726,198.312 507.72,199.128C506.714,199.964 505.631,200.381 504.473,200.381L495.13,200.381L503.789,159.651L513.132,159.651ZM503.533,180.871L506.922,180.871C507.397,180.871 507.758,181.032 508.005,181.355C508.271,181.697 508.356,182.105 508.261,182.58L505.726,194.457C505.631,194.913 505.375,195.311 504.957,195.653C504.577,195.976 504.15,196.137 503.675,196.137L500.286,196.137L503.533,180.871ZM507.122,163.895L510.511,163.895C510.986,163.895 511.347,164.066 511.594,164.407C511.879,164.73 511.973,165.129 511.879,165.604L509.714,175.772C509.6,176.247 509.344,176.646 508.945,176.968C508.546,177.31 508.109,177.481 507.635,177.481L504.245,177.481L507.122,163.895ZM504.473,160.505L496.156,199.527L504.644,199.527C505.574,199.527 506.448,199.195 507.264,198.53C508.062,197.865 508.565,197.068 508.774,196.137L511.651,182.58C511.879,181.497 511.784,180.519 511.366,179.646L511.109,179.162L511.565,178.677C512.363,177.804 512.875,176.835 513.103,175.772L515.61,163.895C515.819,162.964 515.657,162.167 515.126,161.502C514.613,160.837 513.891,160.505 512.961,160.505L504.473,160.505Z" style="fill:url(#_Linear20);fill-rule:nonzero;"/>
                    <path d="M532.386,159.651L531.304,164.749L523.671,164.749L521.136,176.627L525.38,176.627L524.297,181.725L520.053,181.725L517.176,195.283L524.81,195.283L523.727,200.381L510.996,200.381L519.654,159.651L532.386,159.651ZM512.021,199.527L523.044,199.527L523.784,196.137L516.151,196.137L519.398,180.871L523.642,180.871L524.354,177.481L520.11,177.481L522.987,163.895L530.62,163.895L531.361,160.505L520.338,160.505L512.021,199.527Z" style="fill:url(#_Linear21);fill-rule:nonzero;"/>
                    <path d="M545.688,159.651C546.391,159.651 546.932,159.907 547.311,160.42C547.729,160.913 547.862,161.512 547.71,162.214L545.375,173.237L540.276,173.237L541.9,165.604C542.014,165.034 541.786,164.749 541.216,164.749L539.507,164.749C538.956,164.749 538.624,165.034 538.51,165.604L532.358,194.457C532.244,195.008 532.462,195.283 533.013,195.283L534.722,195.283C535.292,195.283 535.633,195.008 535.747,194.457L537.371,186.795L542.469,186.795L540.134,197.846C539.982,198.549 539.602,199.147 538.994,199.641C538.387,200.135 537.732,200.381 537.029,200.381L528.541,200.381C527.839,200.381 527.297,200.135 526.918,199.641C526.519,199.147 526.395,198.549 526.547,197.846L534.124,162.214C534.276,161.512 534.646,160.913 535.235,160.42C535.842,159.907 536.497,159.651 537.2,159.651L545.688,159.651ZM537.029,160.505C536.573,160.505 536.137,160.676 535.719,161.018C535.32,161.341 535.073,161.739 534.978,162.214L527.402,197.846C527.307,198.302 527.383,198.701 527.63,199.043C527.896,199.366 528.256,199.527 528.712,199.527L537.2,199.527C537.675,199.527 538.111,199.366 538.51,199.043C538.928,198.701 539.184,198.302 539.279,197.846L541.444,187.65L538.054,187.65L536.602,194.457C536.507,194.913 536.251,195.311 535.833,195.653C535.453,195.976 535.026,196.137 534.551,196.137L532.842,196.137C532.386,196.137 532.016,195.976 531.731,195.653C531.484,195.311 531.408,194.913 531.503,194.457L537.656,165.604C537.751,165.129 537.988,164.73 538.368,164.407C538.786,164.066 539.222,163.895 539.678,163.895L541.387,163.895C541.862,163.895 542.223,164.066 542.469,164.407C542.754,164.73 542.849,165.129 542.754,165.604L541.302,172.383L544.691,172.383L546.856,162.214C546.951,161.739 546.865,161.341 546.599,161.018C546.353,160.676 545.992,160.505 545.517,160.505L537.029,160.505Z" style="fill:url(#_Linear22);fill-rule:nonzero;"/>
                    <path d="M561.04,174.092C560.642,176.028 559.626,177.718 557.993,179.162C558.999,180.624 559.293,182.323 558.876,184.26L555.458,200.381L550.359,200.381L553.777,184.26C553.929,183.557 553.815,182.959 553.435,182.466C553.018,181.972 552.457,181.725 551.755,181.725L550.929,181.725L546.97,200.381L541.871,200.381L550.53,159.651L555.629,159.651L552.011,176.627L552.837,176.627C553.54,176.627 554.204,176.38 554.831,175.886C555.42,175.392 555.79,174.794 555.942,174.092L559.018,159.651L564.116,159.651L561.04,174.092ZM559.702,160.505L556.796,174.092C556.606,175.022 556.103,175.82 555.287,176.484C554.489,177.149 553.616,177.481 552.666,177.481L550.986,177.481L554.603,160.505L551.214,160.505L542.897,199.527L546.286,199.527L550.274,180.871L551.954,180.871C552.904,180.871 553.635,181.203 554.147,181.867C554.679,182.532 554.841,183.33 554.632,184.26L551.385,199.527L554.774,199.527L558.021,184.26C558.401,182.532 558.145,181.022 557.252,179.731L556.853,179.162L557.48,178.62C558.923,177.329 559.825,175.82 560.186,174.092L563.091,160.505L559.702,160.505Z" style="fill:url(#_Linear23);fill-rule:nonzero;"/>
                </g>
            </g>
        </g>
    </g>
    <defs>
        <linearGradient id="_Linear1" x1="0" y1="0" x2="1" y2="0" gradientUnits="userSpaceOnUse" gradientTransform="matrix(-298.241,102.525,-102.525,-298.241,574.697,48.624)"><stop offset="0" style="stop-color:rgb(0,44,255);stop-opacity:1"/><stop offset="0.18" style="stop-color:rgb(84,25,255);stop-opacity:1"/><stop offset="0.38" style="stop-color:rgb(161,7,255);stop-opacity:1"/><stop offset="1" style="stop-color:rgb(193,0,255);stop-opacity:1"/></linearGradient>
        <linearGradient id="_Linear2" x1="0" y1="0" x2="1" y2="0" gradientUnits="userSpaceOnUse" gradientTransform="matrix(-298.241,102.525,-102.525,-298.241,574.697,48.624)"><stop offset="0" style="stop-color:rgb(0,44,255);stop-opacity:1"/><stop offset="0.18" style="stop-color:rgb(84,25,255);stop-opacity:1"/><stop offset="0.38" style="stop-color:rgb(161,7,255);stop-opacity:1"/><stop offset="1" style="stop-color:rgb(193,0,255);stop-opacity:1"/></linearGradient>
        <linearGradient id="_Linear3" x1="0" y1="0" x2="1" y2="0" gradientUnits="userSpaceOnUse" gradientTransform="matrix(-298.241,102.525,-102.525,-298.241,574.697,48.624)"><stop offset="0" style="stop-color:rgb(0,44,255);stop-opacity:1"/><stop offset="0.18" style="stop-color:rgb(84,25,255);stop-opacity:1"/><stop offset="0.38" style="stop-color:rgb(161,7,255);stop-opacity:1"/><stop offset="1" style="stop-color:rgb(193,0,255);stop-opacity:1"/></linearGradient>
        <linearGradient id="_Linear4" x1="0" y1="0" x2="1" y2="0" gradientUnits="userSpaceOnUse" gradientTransform="matrix(-298.241,102.525,-102.525,-298.241,574.697,48.624)"><stop offset="0" style="stop-color:rgb(0,44,255);stop-opacity:1"/><stop offset="0.18" style="stop-color:rgb(84,25,255);stop-opacity:1"/><stop offset="0.38" style="stop-color:rgb(161,7,255);stop-opacity:1"/><stop offset="1" style="stop-color:rgb(193,0,255);stop-opacity:1"/></linearGradient>
        <linearGradient id="_Linear5" x1="0" y1="0" x2="1" y2="0" gradientUnits="userSpaceOnUse" gradientTransform="matrix(-298.241,102.525,-102.525,-298.241,574.697,48.624)"><stop offset="0" style="stop-color:rgb(0,44,255);stop-opacity:1"/><stop offset="0.18" style="stop-color:rgb(84,25,255);stop-opacity:1"/><stop offset="0.38" style="stop-color:rgb(161,7,255);stop-opacity:1"/><stop offset="1" style="stop-color:rgb(193,0,255);stop-opacity:1"/></linearGradient>
        <linearGradient id="_Linear6" x1="0" y1="0" x2="1" y2="0" gradientUnits="userSpaceOnUse" gradientTransform="matrix(-298.241,102.525,-102.525,-298.241,574.697,48.624)"><stop offset="0" style="stop-color:rgb(0,44,255);stop-opacity:1"/><stop offset="0.18" style="stop-color:rgb(84,25,255);stop-opacity:1"/><stop offset="0.38" style="stop-color:rgb(161,7,255);stop-opacity:1"/><stop offset="1" style="stop-color:rgb(193,0,255);stop-opacity:1"/></linearGradient>
        <linearGradient id="_Linear7" x1="0" y1="0" x2="1" y2="0" gradientUnits="userSpaceOnUse" gradientTransform="matrix(-298.241,102.525,-102.525,-298.241,574.697,48.624)"><stop offset="0" style="stop-color:rgb(0,44,255);stop-opacity:1"/><stop offset="0.18" style="stop-color:rgb(84,25,255);stop-opacity:1"/><stop offset="0.38" style="stop-color:rgb(161,7,255);stop-opacity:1"/><stop offset="1" style="stop-color:rgb(193,0,255);stop-opacity:1"/></linearGradient>
        <linearGradient id="_Linear8" x1="0" y1="0" x2="1" y2="0" gradientUnits="userSpaceOnUse" gradientTransform="matrix(-298.241,102.525,-102.525,-298.241,574.697,48.624)"><stop offset="0" style="stop-color:rgb(0,44,255);stop-opacity:1"/><stop offset="0.18" style="stop-color:rgb(84,25,255);stop-opacity:1"/><stop offset="0.38" style="stop-color:rgb(161,7,255);stop-opacity:1"/><stop offset="1" style="stop-color:rgb(193,0,255);stop-opacity:1"/></linearGradient>
        <linearGradient id="_Linear9" x1="0" y1="0" x2="1" y2="0" gradientUnits="userSpaceOnUse" gradientTransform="matrix(-298.241,102.525,-102.525,-298.241,574.697,48.624)"><stop offset="0" style="stop-color:rgb(0,44,255);stop-opacity:1"/><stop offset="0.18" style="stop-color:rgb(84,25,255);stop-opacity:1"/><stop offset="0.38" style="stop-color:rgb(161,7,255);stop-opacity:1"/><stop offset="1" style="stop-color:rgb(193,0,255);stop-opacity:1"/></linearGradient>
        <linearGradient id="_Linear10" x1="0" y1="0" x2="1" y2="0" gradientUnits="userSpaceOnUse" gradientTransform="matrix(-298.241,102.525,-102.525,-298.241,574.697,48.624)"><stop offset="0" style="stop-color:rgb(0,44,255);stop-opacity:1"/><stop offset="0.18" style="stop-color:rgb(84,25,255);stop-opacity:1"/><stop offset="0.38" style="stop-color:rgb(161,7,255);stop-opacity:1"/><stop offset="1" style="stop-color:rgb(193,0,255);stop-opacity:1"/></linearGradient>
        <linearGradient id="_Linear11" x1="0" y1="0" x2="1" y2="0" gradientUnits="userSpaceOnUse" gradientTransform="matrix(-298.241,102.525,-102.525,-298.241,574.697,48.624)"><stop offset="0" style="stop-color:rgb(0,44,255);stop-opacity:1"/><stop offset="0.18" style="stop-color:rgb(84,25,255);stop-opacity:1"/><stop offset="0.38" style="stop-color:rgb(161,7,255);stop-opacity:1"/><stop offset="1" style="stop-color:rgb(193,0,255);stop-opacity:1"/></linearGradient>
        <linearGradient id="_Linear12" x1="0" y1="0" x2="1" y2="0" gradientUnits="userSpaceOnUse" gradientTransform="matrix(-298.241,102.525,-102.525,-298.241,574.697,48.624)"><stop offset="0" style="stop-color:rgb(0,44,255);stop-opacity:1"/><stop offset="0.18" style="stop-color:rgb(84,25,255);stop-opacity:1"/><stop offset="0.38" style="stop-color:rgb(161,7,255);stop-opacity:1"/><stop offset="1" style="stop-color:rgb(193,0,255);stop-opacity:1"/></linearGradient>
        <linearGradient id="_Linear13" x1="0" y1="0" x2="1" y2="0" gradientUnits="userSpaceOnUse" gradientTransform="matrix(-298.241,102.525,-102.525,-298.241,574.697,48.624)"><stop offset="0" style="stop-color:rgb(0,44,255);stop-opacity:1"/><stop offset="0.18" style="stop-color:rgb(84,25,255);stop-opacity:1"/><stop offset="0.38" style="stop-color:rgb(161,7,255);stop-opacity:1"/><stop offset="1" style="stop-color:rgb(193,0,255);stop-opacity:1"/></linearGradient>
        <linearGradient id="_Linear14" x1="0" y1="0" x2="1" y2="0" gradientUnits="userSpaceOnUse" gradientTransform="matrix(-298.241,102.525,-102.525,-298.241,574.697,48.624)"><stop offset="0" style="stop-color:rgb(0,44,255);stop-opacity:1"/><stop offset="0.18" style="stop-color:rgb(84,25,255);stop-opacity:1"/><stop offset="0.38" style="stop-color:rgb(161,7,255);stop-opacity:1"/><stop offset="1" style="stop-color:rgb(193,0,255);stop-opacity:1"/></linearGradient>
        <linearGradient id="_Linear15" x1="0" y1="0" x2="1" y2="0" gradientUnits="userSpaceOnUse" gradientTransform="matrix(-298.241,102.525,-102.525,-298.241,574.697,48.624)"><stop offset="0" style="stop-color:rgb(0,44,255);stop-opacity:1"/><stop offset="0.18" style="stop-color:rgb(84,25,255);stop-opacity:1"/><stop offset="0.38" style="stop-color:rgb(161,7,255);stop-opacity:1"/><stop offset="1" style="stop-color:rgb(193,0,255);stop-opacity:1"/></linearGradient>
        <linearGradient id="_Linear16" x1="0" y1="0" x2="1" y2="0" gradientUnits="userSpaceOnUse" gradientTransform="matrix(-298.241,102.525,-102.525,-298.241,574.697,48.624)"><stop offset="0" style="stop-color:rgb(0,44,255);stop-opacity:1"/><stop offset="0.18" style="stop-color:rgb(84,25,255);stop-opacity:1"/><stop offset="0.38" style="stop-color:rgb(161,7,255);stop-opacity:1"/><stop offset="1" style="stop-color:rgb(193,0,255);stop-opacity:1"/></linearGradient>
        <linearGradient id="_Linear17" x1="0" y1="0" x2="1" y2="0" gradientUnits="userSpaceOnUse" gradientTransform="matrix(-298.241,102.525,-102.525,-298.241,574.697,48.624)"><stop offset="0" style="stop-color:rgb(0,44,255);stop-opacity:1"/><stop offset="0.18" style="stop-color:rgb(84,25,255);stop-opacity:1"/><stop offset="0.38" style="stop-color:rgb(161,7,255);stop-opacity:1"/><stop offset="1" style="stop-color:rgb(193,0,255);stop-opacity:1"/></linearGradient>
        <linearGradient id="_Linear18" x1="0" y1="0" x2="1" y2="0" gradientUnits="userSpaceOnUse" gradientTransform="matrix(-298.241,102.525,-102.525,-298.241,574.697,48.624)"><stop offset="0" style="stop-color:rgb(0,44,255);stop-opacity:1"/><stop offset="0.18" style="stop-color:rgb(84,25,255);stop-opacity:1"/><stop offset="0.38" style="stop-color:rgb(161,7,255);stop-opacity:1"/><stop offset="1" style="stop-color:rgb(193,0,255);stop-opacity:1"/></linearGradient>
        <linearGradient id="_Linear19" x1="0" y1="0" x2="1" y2="0" gradientUnits="userSpaceOnUse" gradientTransform="matrix(-298.241,102.525,-102.525,-298.241,574.697,48.624)"><stop offset="0" style="stop-color:rgb(0,44,255);stop-opacity:1"/><stop offset="0.18" style="stop-color:rgb(84,25,255);stop-opacity:1"/><stop offset="0.38" style="stop-color:rgb(161,7,255);stop-opacity:1"/><stop offset="1" style="stop-color:rgb(193,0,255);stop-opacity:1"/></linearGradient>
        <linearGradient id="_Linear20" x1="0" y1="0" x2="1" y2="0" gradientUnits="userSpaceOnUse" gradientTransform="matrix(-298.241,102.525,-102.525,-298.241,574.697,48.624)"><stop offset="0" style="stop-color:rgb(0,44,255);stop-opacity:1"/><stop offset="0.18" style="stop-color:rgb(84,25,255);stop-opacity:1"/><stop offset="0.38" style="stop-color:rgb(161,7,255);stop-opacity:1"/><stop offset="1" style="stop-color:rgb(193,0,255);stop-opacity:1"/></linearGradient>
        <linearGradient id="_Linear21" x1="0" y1="0" x2="1" y2="0" gradientUnits="userSpaceOnUse" gradientTransform="matrix(-298.241,102.525,-102.525,-298.241,574.697,48.624)"><stop offset="0" style="stop-color:rgb(0,44,255);stop-opacity:1"/><stop offset="0.18" style="stop-color:rgb(84,25,255);stop-opacity:1"/><stop offset="0.38" style="stop-color:rgb(161,7,255);stop-opacity:1"/><stop offset="1" style="stop-color:rgb(193,0,255);stop-opacity:1"/></linearGradient>
        <linearGradient id="_Linear22" x1="0" y1="0" x2="1" y2="0" gradientUnits="userSpaceOnUse" gradientTransform="matrix(-298.241,102.525,-102.525,-298.241,574.697,48.624)"><stop offset="0" style="stop-color:rgb(0,44,255);stop-opacity:1"/><stop offset="0.18" style="stop-color:rgb(84,25,255);stop-opacity:1"/><stop offset="0.38" style="stop-color:rgb(161,7,255);stop-opacity:1"/><stop offset="1" style="stop-color:rgb(193,0,255);stop-opacity:1"/></linearGradient>
        <linearGradient id="_Linear23" x1="0" y1="0" x2="1" y2="0" gradientUnits="userSpaceOnUse" gradientTransform="matrix(-298.241,102.525,-102.525,-298.241,574.697,48.624)"><stop offset="0" style="stop-color:rgb(0,44,255);stop-opacity:1"/><stop offset="0.18" style="stop-color:rgb(84,25,255);stop-opacity:1"/><stop offset="0.38" style="stop-color:rgb(161,7,255);stop-opacity:1"/><stop offset="1" style="stop-color:rgb(193,0,255);stop-opacity:1"/></linearGradient>
    </defs>
</svg>
